<svg width="264" height="264" viewBox="0 0 264 264" fill="none" xmlns="http://www.w3.org/2000/svg">
<path d="M32.8824 153.452H54.8041V230.178C54.8041 233.085 55.9589 235.873 58.0145 237.928C60.07 239.984 62.8579 241.139 65.7649 241.139H197.295C200.202 241.139 202.99 239.984 205.046 237.928C207.101 235.873 208.256 233.085 208.256 230.178V153.452H230.178C232.296 153.454 234.369 152.84 236.146 151.687C237.922 150.533 239.325 148.888 240.185 146.952C241.05 145.017 241.335 142.872 241.004 140.778C240.673 138.685 239.741 136.732 238.321 135.158L139.674 25.5498C135.52 20.9243 127.54 20.9243 123.386 25.5498L24.7385 135.158C23.3212 136.733 22.3906 138.685 22.0593 140.777C21.728 142.87 22.0102 145.013 22.8719 146.949C23.7335 148.884 25.1376 150.528 26.9142 151.683C28.6908 152.837 30.7638 153.451 32.8824 153.452V153.452ZM94.844 127.595C99.4063 123.091 105.559 120.565 111.97 120.565C118.381 120.565 124.534 123.091 129.097 127.595L131.552 130.007L133.996 127.595C138.56 123.09 144.715 120.564 151.128 120.564C157.541 120.564 163.696 123.09 168.26 127.595C170.524 129.774 172.325 132.386 173.556 135.277C174.786 138.168 175.42 141.278 175.42 144.42C175.42 147.562 174.786 150.672 173.556 153.563C172.325 156.454 170.524 159.067 168.26 161.245L131.552 197.295L94.844 161.245C92.5798 159.067 90.7785 156.454 89.5481 153.563C88.3176 150.672 87.6834 147.562 87.6834 144.42C87.6834 141.278 88.3176 138.168 89.5481 135.277C90.7785 132.386 92.5798 129.774 94.844 127.595V127.595Z" fill="#F17400"/>
</svg>
